name analog
datacolumns 19
datarows 41
range 0.0 0.02
endheader
time	ground_force_vx	ground_force_vy	ground_force_vz	ground_force_px	ground_force_py	ground_force_pz	l_ground_force_vx	l_ground_force_vy	l_ground_force_vz	l_ground_force_px	l_ground_force_py	l_ground_force_pz	ground_torque_x	ground_torque_y	ground_torque_z	l_ground_torque_x	l_ground_torque_y	l_ground_torque_z
0.0	-0.0	-0.0	-0.0	-5.642534732818604	60.0962142944336	-417.0174255371094	6.010584354400635	-61.05266952514648	-364.4267578125	-0.0	-0.0	-0.0	-0.0	-0.0	-0.0	101885.03125	2548.130615234375	-2399.06494140625
0.0005	-0.0	-0.0	-0.0	-5.999530792236328	59.78425979614258	-417.8125	5.633082866668701	-61.38346862792969	-363.46685791015625	-0.0	-0.0	-0.0	-0.0	-0.0	-0.0	101523.21875	2337.981689453125	-2436.611572265625
0.001	-0.0	-0.0	-0.0	-5.240572452545166	59.76177978515625	-417.4599304199219	6.098917484283447	-61.229000091552734	-363.3794250488281	-0.0	-0.0	-0.0	-0.0	-0.0	-0.0	101547.609375	2436.498046875	-2384.337646484375
0.0015	-0.0	-0.0	-0.0	-5.419652938842773	59.67258071899414	-415.8684997558594	6.165306568145752	-61.05232238769531	-363.9038391113281	-0.0	-0.0	-0.0	-0.0	-0.0	-0.0	101455.4140625	2614.866455078125	-2458.374755859375
0.002	-0.0	-0.0	-0.0	-5.598108768463135	59.58397674560547	-416.6646118164063	5.987489700317383	-61.31789779663086	-363.11767578125	-0.0	-0.0	-0.0	-0.0	-0.0	-0.0	101717.46875	2357.70166015625	-2436.27001953125
0.0025	-0.0	-0.0	-0.0	-5.486817836761475	59.80650329589844	-416.667724609375	5.899502277374268	-60.875606536865234	-362.593017578125	-0.0	-0.0	-0.0	-0.0	-0.0	-0.0	101659.515625	2381.397705078125	-2332.595703125
0.003	-0.0	-0.0	-0.0	-5.374711036682129	59.51616287231445	-416.1333923339844	5.632827281951904	-61.07414245605469	-363.6450805664063	-0.0	-0.0	-0.0	-0.0	-0.0	-0.0	101588.375	2440.26904296875	-2339.825439453125
0.0035	-0.0	-0.0	-0.0	-5.240344524383545	59.82852935791016	-417.0223083496094	5.698722839355469	-61.05218124389648	-362.8551025390625	-0.0	-0.0	-0.0	-0.0	-0.0	-0.0	101604.0078125	2356.298095703125	-2384.32470703125
0.004	-0.0	-0.0	-0.0	-5.419832706451416	60.142208099365234	-416.04595947265625	5.587878227233887	-60.78628158569336	-363.1141662597656	-0.0	-0.0	-0.0	-0.0	-0.0	-0.0	101771.3125	2466.626708984375	-2421.894775390625
0.0045000000000000005	-0.0	-0.0	-0.0	-5.108293056488037	59.67214584350586	-417.1977233886719	6.0323333740234375	-60.43489837646485	-362.5918884277344	-0.0	-0.0	-0.0	-0.0	-0.0	-0.0	101486.8046875	2330.972900390625	-2435.833251953125
0.005	-0.0	-0.0	-0.0	-4.994324684143066	59.6486930847168	-417.5513305664063	5.588779449462891	-61.27465057373047	-362.33795166015625	-0.0	-0.0	-0.0	-0.0	-0.0	-0.0	101680.5078125	2205.187255859375	-2384.315185546875
0.0055	-0.0	-0.0	-0.0	-5.241519927978516	59.94100189208984	-417.4586791992188	5.789377689361572	-60.54385757446289	-363.380859375	-0.0	-0.0	-0.0	-0.0	-0.0	-0.0	101526.9375	2245.288818359375	-2480.6806640625
0.006	-0.0	-0.0	-0.0	-5.28879451751709	60.11933517456055	-418.1720275878906	5.789486408233643	-60.921722412109375	-363.2951965332031	-0.0	-0.0	-0.0	-0.0	-0.0	-0.0	101546.7578125	2201.449462890625	-2400.052490234375
0.006500000000000001	-0.0	-0.0	-0.0	-5.015716075897217	59.91554260253906	-417.2858581542969	6.0323333740234375	-61.12022399902344	-362.24798583984375	-0.0	-0.0	-0.0	-0.0	-0.0	-0.0	101589.3671875	2228.91259765625	-2354.1513671875
0.007	-0.0	-0.0	-0.0	-4.591277122497559	60.454227447509766	-417.0273132324219	5.766201019287109	-60.58867645263672	-362.50494384765625	-0.0	-0.0	-0.0	-0.0	-0.0	-0.0	101561.390625	2037.433349609375	-2295.419677734375
0.0075	-0.0	-0.0	-0.0	-5.263420104980469	59.9195556640625	-418.0875854492188	5.634088516235352	-60.6121826171875	-363.2960510253906	-0.0	-0.0	-0.0	-0.0	-0.0	-0.0	101576.5859375	2309.271728515625	-2339.69677734375
0.008	-0.0	-0.0	-0.0	-4.7017693519592285	59.83053207397461	-417.2099914550781	5.655825614929199	-60.967620849609375	-362.5980224609375	-0.0	-0.0	-0.0	-0.0	-0.0	-0.0	101468.0859375	1945.7342529296875	-2347.67822265625
0.0085	-0.0	-0.0	-0.0	-5.01499605178833	59.873966217041016	-416.5708618164063	5.231742858886719	-60.70071792602539	-361.1930236816406	-0.0	-0.0	-0.0	-0.0	-0.0	-0.0	101466.890625	2082.214599609375	-2348.6572265625
0.009000000000000001	-0.0	-0.0	-0.0	-5.152562618255615	59.760623931884766	-417.4483337402344	5.945960998535156	-60.58635330200195	-361.3719482421875	-0.0	-0.0	-0.0	-0.0	-0.0	-0.0	101624.8359375	2019.5445556640625	-2272.06591796875
0.0095	-0.0	-0.0	-0.0	-5.398619651794434	59.647064208984375	-417.0836181640625	6.169124603271484	-60.49788284301758	-362.4944763183594	-0.0	-0.0	-0.0	-0.0	-0.0	-0.0	101474.4453125	2104.430419921875	-2266.2763671875
0.01	-0.0	-0.0	-0.0	-5.06342363357544	59.65270233154297	-417.2648315429688	5.653345584869385	-60.67961120605469	-361.995849609375	-0.0	-0.0	-0.0	-0.0	-0.0	-0.0	101500.203125	2193.779296875	-2296.400146484375
0.0105	-0.0	-0.0	-0.0	-5.398762702941895	59.449981689453125	-415.8512268066406	6.029565334320068	-60.45481491088867	-362.0074768066406	-0.0	-0.0	-0.0	-0.0	-0.0	-0.0	101783.859375	1819.677978515625	-2279.9033203125
0.011	-0.0	-0.0	-0.0	-5.038794040679932	60.055606842041016	-416.8247985839844	5.42989444732666	-60.59157943725586	-360.6621398925781	-0.0	-0.0	-0.0	-0.0	-0.0	-0.0	101144.046875	1990.6397705078125	-2258.8232421875
0.0115	-0.0	-0.0	-0.0	-5.1742095947265625	59.94186782836914	-416.1441955566406	6.053747653961182	-60.57040023803711	-361.0107727050781	-0.0	-0.0	-0.0	-0.0	-0.0	-0.0	101509.484375	1882.7515869140625	-2228.7216796875
0.012	-0.0	-0.0	-0.0	-5.241989135742188	60.03455352783203	-416.837158203125	5.808957099914551	-60.43331909179688	-362.1669616699219	-0.0	-0.0	-0.0	-0.0	-0.0	-0.0	101291.140625	1735.0462646484375	-2139.880859375
0.0125	-0.0	-0.0	-0.0	-5.113658905029297	60.07026672363281	-416.5829162597656	5.830226421356201	-60.503684997558594	-362.15423583984375	-0.0	-0.0	-0.0	-0.0	-0.0	-0.0	101292.6640625	1912.857177734375	-2124.5048828125
0.013000000000000001	-0.0	-0.0	-0.0	-4.8173675537109375	59.85672378540039	-416.7673034667969	5.7379255294799805	-60.27781677246094	-361.6509399414063	-0.0	-0.0	-0.0	-0.0	-0.0	-0.0	101277.2578125	1791.3040771484375	-2145.87548828125
0.0135	-0.0	-0.0	-0.0	-4.860013008117676	60.120418548583984	-416.5369567871094	6.09977388381958	-60.458003997802734	-362.1682434082031	-0.0	-0.0	-0.0	-0.0	-0.0	-0.0	101123.8125	1723.0196533203125	-1996.08154296875
0.014	-0.0	-0.0	-0.0	-4.782926559448242	60.11642456054688	-415.22314453125	6.146052360534668	-60.41203308105469	-361.9718017578125	-0.0	-0.0	-0.0	-0.0	-0.0	-0.0	101300.546875	1872.173095703125	-2140.946044921875
0.0145	-0.0	-0.0	-0.0	-4.685657024383545	59.82773208618164	-418.3500061035156	6.277267456054688	-59.878204345703125	-362.5028076171875	-0.0	-0.0	-0.0	-0.0	-0.0	-0.0	101274.2109375	1646.8983154296875	-2125.2900390625
0.015	-0.0	-0.0	-0.0	-4.018826007843018	60.01465606689453	-417.2907104492188	6.298465728759766	-60.01660537719727	-362.0029296875	-0.0	-0.0	-0.0	-0.0	-0.0	-0.0	101429.2890625	1647.966796875	-2125.345947265625
0.0155	-0.0	-0.0	-0.0	-3.878407716751098	60.09505081176758	-417.3748474121094	6.036538600921631	-60.18914031982422	-362.1368408203125	-0.0	-0.0	-0.0	-0.0	-0.0	-0.0	101322.5859375	1688.955810546875	-2141.1474609375
0.016	-0.0	-0.0	-0.0	-3.925262451171875	60.16765975952149	-417.2729187011719	6.057773590087891	-60.34904098510742	-362.4365234375	-0.0	-0.0	-0.0	-0.0	-0.0	-0.0	101520.421875	1690.1348876953125	-2036.681884765625
0.0165	-0.0	-0.0	-0.0	-3.56842041015625	60.240631103515625	-418.9093017578125	6.146590232849121	-60.395545959472656	-361.6558837890625	-0.0	-0.0	-0.0	-0.0	-0.0	-0.0	101295.5234375	1584.32373046875	-1960.25341796875
0.017	-0.0	-0.0	-0.0	-4.066476345062256	59.93280792236328	-417.74798583984375	6.193372249603272	-60.39110565185547	-363.05322265625	-0.0	-0.0	-0.0	-0.0	-0.0	-0.0	101054.53125	1642.5166015625	-2021.0609130859373
0.0175	-0.0	-0.0	-0.0	-3.7468414306640634	59.93259048461914	-418.3114929199219	6.361413478851318	-60.3702507019043	-362.0890502929688	-0.0	-0.0	-0.0	-0.0	-0.0	-0.0	101401.921875	1610.3095703125	-2020.9481201171875
0.018000000000000002	-0.0	-0.0	-0.0	-3.5212061405181885	60.25215148925781	-420.5955200195313	6.209754943847656	-60.33351135253906	-362.07025146484375	-0.0	-0.0	-0.0	-0.0	-0.0	-0.0	101512.7265625	1690.8817138671875	-1900.7568359375
0.0185	-0.0	-0.0	-0.0	-3.720515727996826	60.320343017578125	-419.1416015625	6.225601196289063	-60.03792572021485	-361.4741516113281	-0.0	-0.0	-0.0	-0.0	-0.0	-0.0	101363.8984375	1424.9918212890625	-2048.95458984375
0.019	-0.0	-0.0	-0.0	-3.752351045608521	59.82740783691406	-418.7057189941406	6.387176513671875	-60.12109756469727	-361.7827453613281	-0.0	-0.0	-0.0	-0.0	-0.0	-0.0	101434.703125	1519.5546875	-1865.601806640625
0.0195	-0.0	-0.0	-0.0	-3.803859233856201	60.367801666259766	-419.224609375	6.413367748260498	-60.39661407470703	-361.678955078125	-0.0	-0.0	-0.0	-0.0	-0.0	-0.0	101403.3046875	1274.57568359375	-1916.2467041015625
0.02	-0.0	-0.0	-0.0	-3.199984073638916	60.41537094116211	-418.7888488769531	6.726711750030518	-60.36513900756836	-362.7901611328125	-0.0	-0.0	-0.0	-0.0	-0.0	-0.0	101312.734375	1586.6259765625	-1933.592529296875
